<?xml version="1.0" encoding="UTF-8"?>
<svg width="974px" height="90px" viewBox="0 0 974 90" version="1.1" xmlns="http://www.w3.org/2000/svg" xmlns:xlink="http://www.w3.org/1999/xlink">
    <title>IDEASFIRST</title>
    <g id="Real" stroke="none" stroke-width="1" fill="none" fill-rule="evenodd">
        <g id="2020-Dark" transform="translate(-316.000000, -449.000000)" fill="#F3F2EE" fill-rule="nonzero">
            <g id="IDEAS-FIRST" transform="translate(316.000000, 449.000000)">
                <path d="M24.48,86.76 L24.48,2.76 L0,2.76 L0,86.76 L24.48,86.76 Z M91.2,86.76 C123.48,86.76 144,71.16 144,44.76 C144,18.36 123.48,2.76 91.2,2.76 L44.28,2.76 L44.28,86.76 L91.2,86.76 Z M89.28,67.32 L68.76,67.32 L68.76,22.2 L89.28,22.2 C107.28,22.2 119.04,29.88 119.04,44.76 C119.04,59.64 107.28,67.32 89.28,67.32 Z M248.52,86.76 L248.52,68.04 L183,68.04 L183,53.16 L235.92,53.16 L235.92,35.28 L183,35.28 L183,21.48 L247.2,21.48 L247.2,2.76 L158.88,2.76 L158.88,86.76 L248.52,86.76 Z M284.64,86.76 L292.56,70.68 L338.64,70.68 L346.56,86.76 L372.6,86.76 L329.16,2.76 L302.4,2.76 L258.96,86.76 L284.64,86.76 Z M330.12,53.28 L300.96,53.28 L315.6,23.52 L330.12,53.28 Z M430.92,89.52 C461.4,89.52 477.36,77.76 477.36,60.48 C477.36,41.16 457.92,35.76 430.44,33.48 C415.44,32.28 405.72,31.56 405.72,25.92 C405.72,19.92 417.6,18.36 427.44,18.36 C440.52,18.48 451.8,21.12 461.16,27.72 L473.52,12.48 C462,4.32 445.44,0 427.44,0 C400.8,0 381.36,9.84 381.36,27.84 C381.36,46.56 404.04,52.08 429,54.24 C446.28,55.68 453,57.48 453,62.88 C453,68.4 445.8,71.04 431.4,71.04 C414.6,71.04 400.8,66.36 390.84,57.96 L378,73.08 C391.2,83.64 409.32,89.52 430.92,89.52 Z M547.96,86.76 L547.96,57.12 L601,57.12 L601,38.04 L547.96,38.04 L547.96,22.08 L611.44,22.08 L611.44,2.76 L523.48,2.76 L523.48,86.76 L547.96,86.76 Z M648.64,86.76 L648.64,2.76 L624.16,2.76 L624.16,86.76 L648.64,86.76 Z M692.8,86.76 L692.8,60.24 L717.52,60.24 L739.72,86.76 L768.16,86.76 L743.44,58.2 C756.64,54.36 765.52,45.48 765.52,31.44 C765.52,12.24 748.84,2.76 727.36,2.76 L668.44,2.76 L668.44,86.76 L692.8,86.76 Z M725.56,42.48 L692.68,42.48 L692.68,21.36 L725.56,21.36 C734.32,21.36 740.68,23.76 740.68,31.92 C740.68,40.08 734.32,42.48 725.56,42.48 Z M827.32,89.52 C857.8,89.52 873.76,77.76 873.76,60.48 C873.76,41.16 854.32,35.76 826.84,33.48 C811.84,32.28 802.12,31.56 802.12,25.92 C802.12,19.92 814,18.36 823.84,18.36 C836.92,18.48 848.2,21.12 857.56,27.72 L869.92,12.48 C858.4,4.32 841.84,0 823.84,0 C797.2,0 777.76,9.84 777.76,27.84 C777.76,46.56 800.44,52.08 825.4,54.24 C842.68,55.68 849.4,57.48 849.4,62.88 C849.4,68.4 842.2,71.04 827.8,71.04 C811,71.04 797.2,66.36 787.24,57.96 L774.4,73.08 C787.6,83.64 805.72,89.52 827.32,89.52 Z M938.8,86.76 L938.8,22.32 L973.72,22.32 L973.72,2.76 L879.64,2.76 L879.64,22.32 L914.32,22.32 L914.32,86.76 L938.8,86.76 Z" id="IDEASFIRST"></path>
            </g>
        </g>
    </g>
</svg>